<svg width="20" height="21" viewBox="0 0 20 21" fill="none" xmlns="http://www.w3.org/2000/svg">
<path d="M1.25 17.3179H18.75" stroke="#484848" strokeLinecap="round" strokeLinejoin="round"/>
<path d="M11.25 17.3179V3.56787C11.25 3.40211 11.1842 3.24314 11.0669 3.12593C10.9497 3.00872 10.7908 2.94287 10.625 2.94287H3.125C2.95924 2.94287 2.80027 3.00872 2.68306 3.12593C2.56585 3.24314 2.5 3.40211 2.5 3.56787V17.3179" stroke="#484848" strokeLinecap="round" strokeLinejoin="round"/>
<path d="M17.5 17.3179V8.56787C17.5 8.40211 17.4342 8.24314 17.3169 8.12593C17.1997 8.00872 17.0408 7.94287 16.875 7.94287H11.25" stroke="#484848" strokeLinecap="round" strokeLinejoin="round"/>
<path d="M5 6.06787H7.5" stroke="#484848" strokeLinecap="round" strokeLinejoin="round"/>
<path d="M6.25 11.0679H8.75" stroke="#484848" strokeLinecap="round" strokeLinejoin="round"/>
<path d="M5 14.1929H7.5" stroke="#484848" strokeLinecap="round" strokeLinejoin="round"/>
<path d="M13.75 14.1929H15" stroke="#484848" strokeLinecap="round" strokeLinejoin="round"/>
<path d="M13.75 11.0679H15" stroke="#484848" strokeLinecap="round" strokeLinejoin="round"/>
</svg>
