<svg width="7" height="12" viewBox="0 0 7 12" fill="none" xmlns="http://www.w3.org/2000/svg">
<path d="M6.29252 10.872C6.38522 10.7795 6.45877 10.6696 6.50895 10.5486C6.55913 10.4277 6.58496 10.298 6.58496 10.167C6.58496 10.036 6.55913 9.90636 6.50895 9.78539C6.45877 9.66441 6.38522 9.55452 6.29252 9.46201L2.41252 5.58201L6.29252 1.70201C6.4795 1.51503 6.58454 1.26144 6.58454 0.99701C6.58454 0.732584 6.4795 0.478986 6.29252 0.292008C6.10554 0.105031 5.85194 -1.05545e-05 5.58752 -1.05776e-05C5.32309 -1.06007e-05 5.0695 0.105031 4.88252 0.292008L0.292517 4.88201C0.199814 4.97452 0.126266 5.08441 0.0760847 5.20538C0.0259033 5.32636 7.39321e-05 5.45604 7.39206e-05 5.58701C7.39092e-05 5.71798 0.0259032 5.84766 0.0760846 5.96863C0.126266 6.08961 0.199814 6.1995 0.292517 6.29201L4.88252 10.882C5.26252 11.262 5.90252 11.262 6.29252 10.872Z" fill="white"/>
</svg>
