<svg width="7" height="12" viewBox="0 0 7 12" fill="none" xmlns="http://www.w3.org/2000/svg">
<path d="M6.29239 11.7062C6.3851 11.6137 6.45865 11.5038 6.50883 11.3829C6.55901 11.2619 6.58484 11.1322 6.58484 11.0012C6.58484 10.8703 6.55901 10.7406 6.50883 10.6196C6.45865 10.4986 6.3851 10.3888 6.29239 10.2962L2.4124 6.41624L6.2924 2.53624C6.47937 2.34926 6.58442 2.09566 6.58442 1.83124C6.58442 1.56681 6.47937 1.31321 6.2924 1.12624C6.10542 0.939259 5.85182 0.834218 5.5874 0.834218C5.32297 0.834218 5.06937 0.939259 4.8824 1.12624L0.292395 5.71624C0.199692 5.80875 0.126144 5.91864 0.0759626 6.03961C0.0257812 6.16059 -4.81382e-05 6.29027 -4.81497e-05 6.42124C-4.81611e-05 6.55221 0.0257811 6.68189 0.0759625 6.80286C0.126144 6.92383 0.199692 7.03372 0.292395 7.12624L4.88239 11.7162C5.26239 12.0962 5.90239 12.0962 6.29239 11.7062Z" fill="black"/>
</svg>
