<svg width="60" height="60" viewBox="0 0 60 60" fill="none" xmlns="http://www.w3.org/2000/svg">
<path opacity="0.2" d="M46.875 35.8269L38.2507 44.4512C38.0217 44.6802 37.7374 44.8459 37.4253 44.9323C37.1133 45.0188 36.7842 45.0229 36.4701 44.9444L22.8864 41.5485C22.6317 41.4848 22.3931 41.3683 22.1862 41.2065L9.375 31.1887L17.0096 16.8257L29.0377 13.3191C29.4674 13.1938 29.9277 13.2264 30.3355 13.4109L38.4375 17.0769H33.5891C33.3429 17.0769 33.0991 17.1254 32.8716 17.2196C32.6441 17.3138 32.4374 17.4519 32.2633 17.6261L23.0912 26.7982C22.9012 26.9881 22.7543 27.2167 22.6604 27.4684C22.5664 27.72 22.5277 27.989 22.5467 28.2569C22.5658 28.5249 22.6422 28.7856 22.7708 29.0215C22.8993 29.2574 23.0771 29.4628 23.292 29.624L24.5625 30.5769C25.8607 31.5505 27.4397 32.0769 29.0625 32.0769C30.6853 32.0769 32.2643 31.5505 33.5625 30.5769L36.5625 28.3269L46.875 35.8269Z" fill="#F05023"/>
<path d="M56.4182 28.5435L50.625 31.4401L43.125 17.0772L48.9772 14.1511C49.4169 13.9312 49.9253 13.8929 50.393 14.0442C50.8607 14.1955 51.2502 14.5245 51.4778 14.9602L57.2417 25.9986C57.357 26.2193 57.4271 26.4608 57.448 26.7089C57.469 26.957 57.4403 27.2068 57.3636 27.4438C57.2869 27.6807 57.1639 27.8999 57.0015 28.0888C56.8392 28.2776 56.6409 28.4322 56.4182 28.5435V28.5435Z" stroke="#F05023" strokeWidth="2" strokeLinecap="round" strokeLinejoin="round"/>
<path d="M9.3746 31.1887L3.5814 28.2921C3.35868 28.1807 3.16038 28.0261 2.99806 27.8373C2.83574 27.6485 2.71266 27.4292 2.636 27.1923C2.55934 26.9554 2.53063 26.7056 2.55155 26.4575C2.57248 26.2093 2.64262 25.9679 2.75787 25.7472L8.52184 14.7088C8.74937 14.273 9.13893 13.9441 9.60662 13.7927C10.0743 13.6414 10.5827 13.6798 11.0224 13.8996L16.8746 16.8257L9.3746 31.1887Z" stroke="#F05023" strokeWidth="2" strokeLinecap="round" strokeLinejoin="round"/>
<path d="M50.625 31.4397L46.875 35.8267L38.2507 44.451C38.0217 44.68 37.7374 44.8457 37.4253 44.9322C37.1133 45.0186 36.7842 45.0228 36.4701 44.9442L22.8864 41.5483C22.6317 41.4846 22.3931 41.3681 22.1862 41.2063L9.375 31.1885" stroke="#F05023" strokeWidth="2" strokeLinecap="round" strokeLinejoin="round"/>
<path d="M46.876 35.8272L36.5635 28.3272L33.5635 30.5772C32.2652 31.5508 30.6862 32.0772 29.0635 32.0772C27.4407 32.0772 25.8617 31.5508 24.5635 30.5772L23.293 29.6243C23.0781 29.4631 22.9003 29.2576 22.7717 29.0218C22.6431 28.7859 22.5667 28.5252 22.5477 28.2572C22.5286 27.9892 22.5674 27.7203 22.6613 27.4686C22.7553 27.217 22.9022 26.9884 23.0921 26.7985L32.2643 17.6263C32.4384 17.4522 32.6451 17.3141 32.8726 17.2199C33.1001 17.1256 33.3439 17.0771 33.5901 17.0771H43.126" stroke="#F05023" strokeWidth="2" strokeLinecap="round" strokeLinejoin="round"/>
<path d="M17.0098 16.8257L29.0379 13.3191C29.4676 13.1938 29.9279 13.2264 30.3356 13.4109L38.4376 17.0769" stroke="#F05023" strokeWidth="2" strokeLinecap="round" strokeLinejoin="round"/>
<path d="M26.25 49.8894L19.1861 48.1234C18.8994 48.0518 18.6338 47.9134 18.4108 47.7195L13.125 43.125" stroke="#F05023" strokeWidth="2" strokeLinecap="round" strokeLinejoin="round"/>
</svg>
