<svg width="46" height="46" viewBox="0 0 46 46" fill="none" xmlns="http://www.w3.org/2000/svg">
<g filter="url(#filter0_d)">
<circle cx="23" cy="19" r="19" fill="white"/>
</g>
<path fill-rule="evenodd" clip-rule="evenodd" d="M23 2.11108C13.6727 2.11108 6.11108 9.6727 6.11108 19C6.11108 28.3272 13.6727 35.8889 23 35.8889C32.3272 35.8889 39.8889 28.3272 39.8889 19C39.8889 9.6727 32.3272 2.11108 23 2.11108ZM22.2323 9.78785C21.8251 9.78785 21.4346 9.94961 21.1466 10.2375C20.8587 10.5255 20.6969 10.916 20.6969 11.3232C20.6969 11.7304 20.8587 12.1209 21.1466 12.4089C21.4346 12.6968 21.8251 12.8586 22.2323 12.8586H23C23.4072 12.8586 23.7977 12.6968 24.0856 12.4089C24.3736 12.1209 24.5353 11.7304 24.5353 11.3232C24.5353 10.916 24.3736 10.5255 24.0856 10.2375C23.7977 9.94961 23.4072 9.78785 23 9.78785H22.2323ZM19.9293 15.9293C19.5221 15.9293 19.1315 16.091 18.8436 16.379C18.5557 16.6669 18.3939 17.0574 18.3939 17.4646C18.3939 17.8718 18.5557 18.2623 18.8436 18.5503C19.1315 18.8382 19.5221 19 19.9293 19H21.4646V23.606H19.9293C19.5221 23.606 19.1315 23.7678 18.8436 24.0557C18.5557 24.3437 18.3939 24.7342 18.3939 25.1414C18.3939 25.5486 18.5557 25.9391 18.8436 26.227C19.1315 26.515 19.5221 26.6767 19.9293 26.6767H26.0707C26.4779 26.6767 26.8684 26.515 27.1563 26.227C27.4443 25.9391 27.606 25.5486 27.606 25.1414C27.606 24.7342 27.4443 24.3437 27.1563 24.0557C26.8684 23.7678 26.4779 23.606 26.0707 23.606H24.5353V17.4646C24.5353 17.0574 24.3736 16.6669 24.0856 16.379C23.7977 16.091 23.4072 15.9293 23 15.9293H19.9293Z" fill="#FF4E00"/>
<defs>
<filter id="filter0_d" x="0" y="0" width="46" height="46" filterUnits="userSpaceOnUse" color-interpolation-filters="sRGB">
<feFlood flood-opacity="0" result="BackgroundImageFix"/>
<feColorMatrix in="SourceAlpha" type="matrix" values="0 0 0 0 0 0 0 0 0 0 0 0 0 0 0 0 0 0 127 0" result="hardAlpha"/>
<feOffset dy="4"/>
<feGaussianBlur stdDeviation="2"/>
<feComposite in2="hardAlpha" operator="out"/>
<feColorMatrix type="matrix" values="0 0 0 0 0 0 0 0 0 0 0 0 0 0 0 0 0 0 0.1 0"/>
<feBlend mode="normal" in2="BackgroundImageFix" result="effect1_dropShadow"/>
<feBlend mode="normal" in="SourceGraphic" in2="effect1_dropShadow" result="shape"/>
</filter>
</defs>
</svg>
