<svg width="24" height="22" viewBox="0 0 24 22" fill="none" xmlns="http://www.w3.org/2000/svg">
<path d="M20.6365 0.733333C20.6365 0.538841 20.5592 0.352315 20.4217 0.214788C20.2841 0.0772617 20.0976 0 19.9031 0H3.76979C3.5753 0 3.38877 0.0772617 3.25125 0.214788C3.11372 0.352315 3.03646 0.538841 3.03646 0.733333V1.46667H20.6365V0.733333Z" fill="white"/>
<path d="M22.0874 3.66667C22.0874 3.47217 22.0101 3.28565 21.8726 3.14812C21.7351 3.0106 21.5485 2.93333 21.354 2.93333H2.28737C2.09288 2.93333 1.90635 3.0106 1.76883 3.14812C1.6313 3.28565 1.55404 3.47217 1.55404 3.66667V4.4H22.0874V3.66667Z" fill="white"/>
<path d="M22.088 5.86667H1.37867C1.01302 5.86667 0.662352 6.01192 0.403802 6.27047C0.145252 6.52902 0 6.87969 0 7.24533V20.6213C0 20.987 0.145252 21.3376 0.403802 21.5962C0.662352 21.8547 1.01302 22 1.37867 22H22.088C22.4536 22 22.8043 21.8547 23.0629 21.5962C23.3214 21.3376 23.4667 20.987 23.4667 20.6213V7.24533C23.4667 6.87969 23.3214 6.52902 23.0629 6.27047C22.8043 6.01192 22.4536 5.86667 22.088 5.86667ZM4.81067 8.39667C5.24579 8.39667 5.67113 8.52569 6.03292 8.76743C6.39471 9.00917 6.67669 9.35277 6.8432 9.75476C7.00971 10.1568 7.05328 10.5991 6.96839 11.0259C6.88351 11.4526 6.67398 11.8446 6.3663 12.1523C6.05863 12.46 5.66662 12.6695 5.23987 12.7544C4.81311 12.8393 4.37076 12.7957 3.96876 12.6292C3.56677 12.4627 3.22317 12.1807 2.98143 11.8189C2.73969 11.4571 2.61067 11.0318 2.61067 10.5967C2.61067 10.0132 2.84245 9.45361 3.25503 9.04103C3.66761 8.62845 4.22719 8.39667 4.81067 8.39667ZM20.5333 19.0667H2.93333L8.404 13.5887C8.50152 13.4919 8.63331 13.4377 8.77067 13.4377C8.90802 13.4377 9.03981 13.4919 9.13733 13.5887L11.836 16.2873L15.554 12.4667C15.6515 12.3699 15.7833 12.3157 15.9207 12.3157C16.058 12.3157 16.1898 12.3699 16.2873 12.4667L20.5333 16.7127V19.0667Z" fill="white"/>
</svg>
