<svg width="20" height="21" viewBox="0 0 20 21" fill="none" xmlns="http://www.w3.org/2000/svg">
<path d="M7.27861 10.0405C6.79681 8.83875 6.74472 7.50751 7.13115 6.2718C7.51757 5.03608 8.3188 3.97169 9.39941 3.25853C10.48 2.54537 11.7737 2.22719 13.0618 2.35777C14.35 2.48835 15.5535 3.05968 16.469 3.97519C17.3845 4.8907 17.9558 6.09423 18.0864 7.38235C18.217 8.67048 17.8988 9.96418 17.1856 11.0448C16.4725 12.1254 15.4081 12.9266 14.1724 13.313C12.9367 13.6995 11.6054 13.6474 10.4037 13.1656L10.4037 13.1655L9.375 14.1942H7.5V16.0692H5.625V17.9442H2.5V14.8192L7.27875 10.0404L7.27861 10.0405Z" stroke="#484848" strokeLinecap="round" strokeLinejoin="round"/>
<path opacity="0.5" d="M14.0625 6.69434C14.2351 6.69434 14.375 6.55442 14.375 6.38184C14.375 6.20925 14.2351 6.06934 14.0625 6.06934C13.8899 6.06934 13.75 6.20925 13.75 6.38184C13.75 6.55442 13.8899 6.69434 14.0625 6.69434Z" stroke="#484848" strokeLinecap="round" strokeLinejoin="round"/>
<path d="M14.0625 7.00684C14.4077 7.00684 14.6875 6.72701 14.6875 6.38184C14.6875 6.03666 14.4077 5.75684 14.0625 5.75684C13.7173 5.75684 13.4375 6.03666 13.4375 6.38184C13.4375 6.72701 13.7173 7.00684 14.0625 7.00684Z" fill="#484848"/>
</svg>
