<svg width="22" height="28" viewBox="0 0 22 28" fill="none" xmlns="http://www.w3.org/2000/svg">
<path d="M10.9993 -0.000488281C8.08295 0.002972 5.28707 1.16301 3.22491 3.22516C1.16276 5.28731 0.00272786 8.08319 -0.000732422 10.9995C-0.000732422 20.4116 9.99927 27.521 10.425 27.8188C10.5934 27.9364 10.7939 27.9995 10.9993 27.9995C11.2047 27.9995 11.4051 27.9364 11.5735 27.8188C11.9993 27.521 21.9993 20.4116 21.9993 10.9995C21.9958 8.08319 20.8358 5.28731 18.7736 3.22516C16.7115 1.16301 13.9156 0.00297167 10.9993 -0.000488281ZM11 6.99987C11.7911 6.99987 12.5645 7.23447 13.2223 7.674C13.8801 8.11352 14.3928 8.73824 14.6955 9.46914C14.9983 10.2 15.0775 11.0043 14.9231 11.7802C14.7688 12.5562 14.3878 13.2689 13.8284 13.8283C13.269 14.3877 12.5563 14.7687 11.7804 14.923C11.0044 15.0774 10.2002 14.9981 9.46927 14.6954C8.73836 14.3926 8.11365 13.88 7.67412 13.2222C7.2346 12.5644 7 11.791 7 10.9999C6.99999 10.4746 7.10344 9.95443 7.30445 9.46912C7.50546 8.98381 7.8001 8.54285 8.17154 8.17141C8.54298 7.79998 8.98394 7.50534 9.46925 7.30433C9.95456 7.10331 10.4747 6.99986 11 6.99987Z" fill="black" fill-opacity="0.6"/>
</svg>
