<svg width="20" height="21" viewBox="0 0 20 21" fill="none" xmlns="http://www.w3.org/2000/svg">
<path d="M10 11.0693C11.3807 11.0693 12.5 9.95005 12.5 8.56934C12.5 7.18862 11.3807 6.06934 10 6.06934C8.61929 6.06934 7.5 7.18862 7.5 8.56934C7.5 9.95005 8.61929 11.0693 10 11.0693Z" stroke="#484848" strokeLinecap="round" strokeLinejoin="round"/>
<path d="M16.25 8.56934C16.25 14.1943 10 18.5693 10 18.5693C10 18.5693 3.75 14.1943 3.75 8.56934C3.75 6.91173 4.40848 5.32202 5.58058 4.14992C6.75269 2.97782 8.3424 2.31934 10 2.31934C11.6576 2.31934 13.2473 2.97782 14.4194 4.14992C15.5915 5.32202 16.25 6.91173 16.25 8.56934V8.56934Z" stroke="#484848" strokeLinecap="round" strokeLinejoin="round"/>
</svg>
