<svg width="20" height="16" viewBox="0 0 20 16" fill="none" xmlns="http://www.w3.org/2000/svg">
<path d="M18.6865 0.0498092C16.6569 0.729679 13.8574 1.49953 9.99813 1.49953C6.10887 1.49953 3.04946 0.659692 1.30979 0.0698054C1.15974 0.0192512 0.999768 0.00532037 0.843235 0.0291757C0.686702 0.053031 0.538145 0.11398 0.409962 0.206937C0.28178 0.299894 0.17769 0.422161 0.106381 0.563535C0.035071 0.704909 -0.00139006 0.861289 4.05294e-05 1.01962V14.9969C4.05294e-05 15.6768 0.659914 16.1667 1.30979 15.9468C3.3594 15.2569 6.09887 14.497 9.99813 14.497C13.8674 14.497 16.6569 15.2569 18.6865 15.9468C18.8365 15.9959 18.996 16.0088 19.152 15.9844C19.308 15.9599 19.456 15.8988 19.5838 15.8062C19.7116 15.7135 19.8156 15.5918 19.8873 15.4511C19.959 15.3105 19.9963 15.1548 19.9962 14.9969V0.999627C19.9962 0.319757 19.3363 -0.160151 18.6865 0.0498092ZM9.99813 10.9977C7.65857 10.9977 5.47899 11.1477 3.47937 11.4076L7.16867 6.98848L9.16829 9.38802L11.9977 5.99867L16.5069 11.3976C14.5173 11.1477 12.2977 10.9977 9.99813 10.9977Z" fill="white"/>
</svg>
