<svg width="12" height="12" viewBox="0 0 12 12" fill="none" xmlns="http://www.w3.org/2000/svg">
<path d="M11.625 12H5.625C5.52344 12 5.43555 11.9629 5.36133 11.8887C5.28711 11.8145 5.25 11.7266 5.25 11.625V5.625C5.25 5.52344 5.28711 5.43555 5.36133 5.36133C5.43555 5.28711 5.52344 5.25 5.625 5.25H11.625C11.7266 5.25 11.8145 5.28711 11.8887 5.36133C11.9629 5.43555 12 5.52344 12 5.625V11.625C12 11.7266 11.9629 11.8145 11.8887 11.8887C11.8145 11.9629 11.7266 12 11.625 12ZM11.625 4.5H10.875C10.7734 4.5 10.6855 4.46289 10.6113 4.38867C10.5371 4.31445 10.5 4.22656 10.5 4.125V3.375C10.5 3.27344 10.5371 3.18555 10.6113 3.11133C10.6855 3.03711 10.7734 3 10.875 3H11.625C11.7266 3 11.8145 3.03711 11.8887 3.11133C11.9629 3.18555 12 3.27344 12 3.375V4.125C12 4.22656 11.9629 4.31445 11.8887 4.38867C11.8145 4.46289 11.7266 4.5 11.625 4.5ZM11.625 2.25H10.875C10.7734 2.25 10.6855 2.21289 10.6113 2.13867C10.5371 2.06445 10.5 1.97656 10.5 1.875V1.5H10.125C10.0234 1.5 9.93555 1.46289 9.86133 1.38867C9.78711 1.31445 9.75 1.22656 9.75 1.125V0.375C9.75 0.273438 9.78711 0.185547 9.86133 0.111328C9.93555 0.0371094 10.0234 0 10.125 0H11.625C11.7266 0 11.8145 0.0371094 11.8887 0.111328C11.9629 0.185547 12 0.273438 12 0.375V1.875C12 1.97656 11.9629 2.06445 11.8887 2.13867C11.8145 2.21289 11.7266 2.25 11.625 2.25ZM8.625 1.5H7.875C7.77344 1.5 7.68555 1.46289 7.61133 1.38867C7.53711 1.31445 7.5 1.22656 7.5 1.125V0.375C7.5 0.273438 7.53711 0.185547 7.61133 0.111328C7.68555 0.0371094 7.77344 0 7.875 0H8.625C8.72656 0 8.81445 0.0371094 8.88867 0.111328C8.96289 0.185547 9 0.273438 9 0.375V1.125C9 1.22656 8.96289 1.31445 8.88867 1.38867C8.81445 1.46289 8.72656 1.5 8.625 1.5ZM6.375 1.5H5.625C5.52344 1.5 5.43555 1.46289 5.36133 1.38867C5.28711 1.31445 5.25 1.22656 5.25 1.125V0.375C5.25 0.273438 5.28711 0.185547 5.36133 0.111328C5.43555 0.0371094 5.52344 0 5.625 0H6.375C6.47656 0 6.56445 0.0371094 6.63867 0.111328C6.71289 0.185547 6.75 0.273438 6.75 0.375V1.125C6.75 1.22656 6.71289 1.31445 6.63867 1.38867C6.56445 1.46289 6.47656 1.5 6.375 1.5ZM4.125 12H3.375C3.27344 12 3.18555 11.9629 3.11133 11.8887C3.03711 11.8145 3 11.7266 3 11.625V10.875C3 10.7734 3.03711 10.6855 3.11133 10.6113C3.18555 10.5371 3.27344 10.5 3.375 10.5H4.125C4.22656 10.5 4.31445 10.5371 4.38867 10.6113C4.46289 10.6855 4.5 10.7734 4.5 10.875V11.625C4.5 11.7266 4.46289 11.8145 4.38867 11.8887C4.31445 11.9629 4.22656 12 4.125 12ZM4.125 1.5H3.375C3.27344 1.5 3.18555 1.46289 3.11133 1.38867C3.03711 1.31445 3 1.22656 3 1.125V0.375C3 0.273438 3.03711 0.185547 3.11133 0.111328C3.18555 0.0371094 3.27344 0 3.375 0H4.125C4.22656 0 4.31445 0.0371094 4.38867 0.111328C4.46289 0.185547 4.5 0.273438 4.5 0.375V1.125C4.5 1.22656 4.46289 1.31445 4.38867 1.38867C4.31445 1.46289 4.22656 1.5 4.125 1.5ZM1.875 12H0.375C0.273438 12 0.185547 11.9629 0.111328 11.8887C0.0371094 11.8145 0 11.7266 0 11.625V10.125C0 10.0234 0.0371094 9.93555 0.111328 9.86133C0.185547 9.78711 0.273438 9.75 0.375 9.75H1.125C1.22656 9.75 1.31445 9.78711 1.38867 9.86133C1.46289 9.93555 1.5 10.0234 1.5 10.125V10.5H1.875C1.97656 10.5 2.06445 10.5371 2.13867 10.6113C2.21289 10.6855 2.25 10.7734 2.25 10.875V11.625C2.25 11.7266 2.21289 11.8145 2.13867 11.8887C2.06445 11.9629 1.97656 12 1.875 12ZM1.875 1.5H1.5V1.875C1.5 1.97656 1.46289 2.06445 1.38867 2.13867C1.31445 2.21289 1.22656 2.25 1.125 2.25H0.375C0.273438 2.25 0.185547 2.21289 0.111328 2.13867C0.0371094 2.06445 0 1.97656 0 1.875V0.375C0 0.273438 0.0371094 0.185547 0.111328 0.111328C0.185547 0.0371094 0.273438 0 0.375 0H1.875C1.97656 0 2.06445 0.0371094 2.13867 0.111328C2.21289 0.185547 2.25 0.273438 2.25 0.375V1.125C2.25 1.22656 2.21289 1.31445 2.13867 1.38867C2.06445 1.46289 1.97656 1.5 1.875 1.5ZM0.375 3H1.125C1.22656 3 1.31445 3.03711 1.38867 3.11133C1.46289 3.18555 1.5 3.27344 1.5 3.375V4.125C1.5 4.22656 1.46289 4.31445 1.38867 4.38867C1.31445 4.46289 1.22656 4.5 1.125 4.5H0.375C0.273438 4.5 0.185547 4.46289 0.111328 4.38867C0.0371094 4.31445 0 4.22656 0 4.125V3.375C0 3.27344 0.0371094 3.18555 0.111328 3.11133C0.185547 3.03711 0.273438 3 0.375 3ZM0.375 5.25H1.125C1.22656 5.25 1.31445 5.28711 1.38867 5.36133C1.46289 5.43555 1.5 5.52344 1.5 5.625V6.375C1.5 6.47656 1.46289 6.56445 1.38867 6.63867C1.31445 6.71289 1.22656 6.75 1.125 6.75H0.375C0.273438 6.75 0.185547 6.71289 0.111328 6.63867C0.0371094 6.56445 0 6.47656 0 6.375V5.625C0 5.52344 0.0371094 5.43555 0.111328 5.36133C0.185547 5.28711 0.273438 5.25 0.375 5.25ZM0.375 7.5H1.125C1.22656 7.5 1.31445 7.53711 1.38867 7.61133C1.46289 7.68555 1.5 7.77344 1.5 7.875V8.625C1.5 8.72656 1.46289 8.81445 1.38867 8.88867C1.31445 8.96289 1.22656 9 1.125 9H0.375C0.273438 9 0.185547 8.96289 0.111328 8.88867C0.0371094 8.81445 0 8.72656 0 8.625V7.875C0 7.77344 0.0371094 7.68555 0.111328 7.61133C0.185547 7.53711 0.273438 7.5 0.375 7.5Z" fill="black"/>
</svg>
