<svg width="60" height="60" viewBox="0 0 60 60" fill="none" xmlns="http://www.w3.org/2000/svg">
<path opacity="0.2" d="M18.75 46.875C22.8921 46.875 26.25 43.5171 26.25 39.375C26.25 35.2329 22.8921 31.875 18.75 31.875C14.6079 31.875 11.25 35.2329 11.25 39.375C11.25 43.5171 14.6079 46.875 18.75 46.875Z" fill="#F05023"/>
<path opacity="0.2" d="M18.75 22.5C22.8921 22.5 26.25 19.1421 26.25 15C26.25 10.8579 22.8921 7.5 18.75 7.5C14.6079 7.5 11.25 10.8579 11.25 15C11.25 19.1421 14.6079 22.5 18.75 22.5Z" fill="#F05023"/>
<path opacity="0.2" d="M41.25 46.875C45.3921 46.875 48.75 43.5171 48.75 39.375C48.75 35.2329 45.3921 31.875 41.25 31.875C37.1079 31.875 33.75 35.2329 33.75 39.375C33.75 43.5171 37.1079 46.875 41.25 46.875Z" fill="#F05023"/>
<path opacity="0.2" d="M41.25 22.5C45.3921 22.5 48.75 19.1421 48.75 15C48.75 10.8579 45.3921 7.5 41.25 7.5C37.1079 7.5 33.75 10.8579 33.75 15C33.75 19.1421 37.1079 22.5 41.25 22.5Z" fill="#F05023"/>
<path d="M18.75 46.875C22.8921 46.875 26.25 43.5171 26.25 39.375C26.25 35.2329 22.8921 31.875 18.75 31.875C14.6079 31.875 11.25 35.2329 11.25 39.375C11.25 43.5171 14.6079 46.875 18.75 46.875Z" stroke="#F05023" strokeWidth="2" strokeLinecap="round" strokeLinejoin="round"/>
<path d="M7.5 52.4995C8.81008 50.7532 10.5087 49.3358 12.4614 48.3595C14.4141 47.3833 16.5672 46.8751 18.7503 46.875C20.9335 46.8749 23.0866 47.3831 25.0394 48.3592C26.9921 49.3354 28.6908 50.7527 30.0009 52.499" stroke="#F05023" strokeWidth="2" strokeLinecap="round" strokeLinejoin="round"/>
<path d="M18.75 22.5C22.8921 22.5 26.25 19.1421 26.25 15C26.25 10.8579 22.8921 7.5 18.75 7.5C14.6079 7.5 11.25 10.8579 11.25 15C11.25 19.1421 14.6079 22.5 18.75 22.5Z" stroke="#F05023" strokeWidth="2" strokeLinecap="round" strokeLinejoin="round"/>
<path d="M7.5 28.1245C8.81008 26.3782 10.5087 24.9608 12.4614 23.9845C14.4141 23.0083 16.5672 22.5001 18.7503 22.5C20.9335 22.4999 23.0866 23.0081 25.0394 23.9843C26.9921 24.9604 28.6908 26.3777 30.0009 28.124" stroke="#F05023" strokeWidth="2" strokeLinecap="round" strokeLinejoin="round"/>
<path d="M41.25 46.875C45.3921 46.875 48.75 43.5171 48.75 39.375C48.75 35.2329 45.3921 31.875 41.25 31.875C37.1079 31.875 33.75 35.2329 33.75 39.375C33.75 43.5171 37.1079 46.875 41.25 46.875Z" stroke="#F05023" strokeWidth="2" strokeLinecap="round" strokeLinejoin="round"/>
<path d="M30 52.4995C31.3101 50.7532 33.0087 49.3358 34.9614 48.3595C36.9141 47.3833 39.0672 46.8751 41.2503 46.875C43.4335 46.8749 45.5866 47.3831 47.5394 48.3592C49.4921 49.3354 51.1908 50.7527 52.5009 52.499" stroke="#F05023" strokeWidth="2" strokeLinecap="round" strokeLinejoin="round"/>
<path d="M41.25 22.5C45.3921 22.5 48.75 19.1421 48.75 15C48.75 10.8579 45.3921 7.5 41.25 7.5C37.1079 7.5 33.75 10.8579 33.75 15C33.75 19.1421 37.1079 22.5 41.25 22.5Z" stroke="#F05023" strokeWidth="2" strokeLinecap="round" strokeLinejoin="round"/>
<path d="M30 28.1245C31.3101 26.3782 33.0087 24.9608 34.9614 23.9845C36.9141 23.0083 39.0672 22.5001 41.2503 22.5C43.4335 22.4999 45.5866 23.0081 47.5394 23.9843C49.4921 24.9604 51.1908 26.3777 52.5009 28.124" stroke="#F05023" strokeWidth="2" strokeLinecap="round" strokeLinejoin="round"/>
</svg>
