<svg width="12" height="11" viewBox="0 0 12 11" fill="none" xmlns="http://www.w3.org/2000/svg">
<path d="M1.02 0H0.12C0.054 0 0 0.054 0 0.12V9.96C0 10.026 0.054 10.08 0.12 10.08H1.02C1.086 10.08 1.14 10.026 1.14 9.96V0.12C1.14 0.054 1.086 0 1.02 0ZM11.88 0H10.98C10.914 0 10.86 0.054 10.86 0.12V9.96C10.86 10.026 10.914 10.08 10.98 10.08H11.88C11.946 10.08 12 10.026 12 9.96V0.12C12 0.054 11.946 0 11.88 0ZM10.0995 4.9245L8.1855 3.414C8.16949 3.4014 8.15025 3.39357 8.12999 3.3914C8.10973 3.38924 8.08927 3.39282 8.07095 3.40174C8.05264 3.41067 8.0372 3.42457 8.02642 3.44186C8.01564 3.45915 8.00995 3.47913 8.01 3.4995V4.5H3.99V3.558C3.99 3.468 3.885 3.417 3.8145 3.4725L1.9005 4.9845C1.88755 4.99451 1.87706 5.00735 1.86985 5.02204C1.86263 5.03673 1.85888 5.05288 1.85888 5.06925C1.85888 5.08562 1.86263 5.10177 1.86985 5.11646C1.87706 5.13115 1.88755 5.14399 1.9005 5.154L3.813 6.666C3.8835 6.7215 3.9885 6.672 3.9885 6.5805V5.58H8.0085V6.522C8.0085 6.612 8.1135 6.663 8.184 6.6075L10.0965 5.0955C10.1535 5.052 10.1535 4.968 10.0995 4.9245Z" fill="black"/>
</svg>
