<?xml version="1.0"?>
<svg xmlns="http://www.w3.org/2000/svg" xmlns:xlink="http://www.w3.org/1999/xlink" xmlns:svgjs="http://svgjs.com/svgjs" version="1.1" width="512" height="512" x="0" y="0" viewBox="0 0 24 24" style="enable-background:new 0 0 512 512" xml:space="preserve" class=""><g><g xmlns="http://www.w3.org/2000/svg"><path d="m5 11c1.103 0 2-.897 2-2s-.897-2-2-2-2 .897-2 2 .897 2 2 2z" fill="#ff4e00" data-original="#000000" style="" class=""/></g><path xmlns="http://www.w3.org/2000/svg" d="m23.222 2.889c-.504-.373-1.167-.485-1.773-.3-6.182 1.89-12.715 1.89-18.896 0-.606-.184-1.27-.072-1.773.3-.497.366-.78.927-.78 1.54v15.143c0 .612.283 1.174.778 1.54.504.373 1.168.486 1.773.3 6.182-1.89 12.715-1.89 18.896 0 .192.059.391.087.588.087.424 0 .842-.133 1.186-.388.496-.366.779-.927.779-1.54v-15.142c0-.613-.283-1.174-.778-1.54zm-1.222 1.623.022 10.45-5.282-5.282c-.66-.661-1.82-.661-2.48 0l-4.76 4.76-1.26-1.26c-.66-.661-1.82-.661-2.48 0l-3.765 3.765-.027-12.444c6.55 2.003 13.473 2.008 20.032.011z" fill="#ff4e00" data-original="#000000" style="" class=""/></g></svg>
