<svg width="20" height="20" viewBox="0 0 20 20" fill="none" xmlns="http://www.w3.org/2000/svg">
<path d="M11.3925 9.99954L19.4637 1.70663C19.646 1.51906 19.7484 1.26477 19.7483 0.999666C19.7482 0.734564 19.6457 0.480343 19.4632 0.292887C19.2808 0.105431 19.0334 8.31773e-05 18.7753 4.92329e-08C18.5173 -8.30788e-05 18.2698 0.105106 18.0873 0.292444L10.0162 8.58535L1.94505 0.292444C1.7625 0.105106 1.51501 -8.30788e-05 1.257 4.92329e-08C0.998985 8.31773e-05 0.751563 0.105431 0.569121 0.292887C0.386678 0.480343 0.284147 0.734564 0.284066 0.999666C0.283985 1.26477 0.386361 1.51906 0.568689 1.70663L8.63981 9.99954L0.568689 18.2924C0.478223 18.3853 0.406447 18.4955 0.357462 18.6169C0.308477 18.7382 0.283243 18.8683 0.283203 18.9997C0.283163 19.131 0.308317 19.2611 0.357228 19.3825C0.406139 19.5039 0.477848 19.6142 0.568257 19.7071C0.658667 19.8 0.766006 19.8736 0.884139 19.9239C1.00227 19.9742 1.12889 20 1.25674 20C1.3846 19.9999 1.5112 19.974 1.6293 19.9237C1.74741 19.8733 1.8547 19.7996 1.94505 19.7066L10.0162 11.4137L18.0873 19.7066C18.2698 19.894 18.5173 19.9992 18.7753 19.9991C19.0334 19.999 19.2808 19.8936 19.4632 19.7062C19.6457 19.5187 19.7482 19.2645 19.7483 18.9994C19.7484 18.7343 19.646 18.48 19.4637 18.2924L11.3925 9.99954Z" fill="#FF9D09"/>
</svg>
